<svg xmlns="http://www.w3.org/2000/svg" viewBox="0 0 1302 1302">
  <!-- <path fill="#569cd6" d="M899.4,494.5l345.8,2.4C1245.2,352.8,1099.4,0,681.3,0,414.9,0,56.8,169.4,56.8,656.3S407.9,1302,681.3,1302c442.8,0,548.6-306.4,548.6-479.6L900,803.5s8.8,200.3-220.5,200.3c-211.7,0-247-259.3-247-347.5,0-134.1,47.7-349.3,247-349.3S899.4,494.5,899.4,494.5"/> -->
  <path fill="#007acc" d="M899.4,494.5l345.8,2.4C1245.2,352.8,1099.4,0,681.3,0,414.9,0,56.8,169.4,56.8,656.3S407.9,1302,681.3,1302c442.8,0,548.6-306.4,548.6-479.6L900,803.5s8.8,200.3-220.5,200.3c-211.7,0-247-259.3-247-347.5,0-134.1,47.7-349.3,247-349.3S899.4,494.5,899.4,494.5"/>
</svg>
